<?xml version="1.0" standalone="no"?>
<!DOCTYPE svg PUBLIC "-//W3C//DTD SVG 20010904//EN"
 "http://www.w3.org/TR/2001/REC-SVG-20010904/DTD/svg10.dtd">
<svg version="1.0" xmlns="http://www.w3.org/2000/svg"
 width="819.200000pt" height="819.200000pt" viewBox="0 0 819.200000 819.200000"
 preserveAspectRatio="xMidYMid meet">
<metadata>
Created by potrace 1.13, written by Peter Selinger 2001-2015
</metadata>
<g transform="translate(0.000000,819.200000) scale(0.080000,-0.080000)"
fill="#000000" stroke="none">
<path d="M2030 8953 c-85 -10 -236 -46 -331 -79 -528 -184 -907 -617 -1032
-1178 l-22 -101 0 -2470 c0 -2336 1 -2475 18 -2555 138 -656 599 -1122 1249
-1263 l103 -22 3105 0 3105 0 103 22 c647 141 1113 610 1248 1258 18 87 19
181 19 2560 l0 2470 -22 101 c-140 631 -597 1090 -1231 1236 l-97 23 -3090 1
c-1699 0 -3106 -1 -3125 -3z m6165 -655 c194 -45 336 -120 469 -247 170 -164
265 -369 286 -621 13 -154 13 -4466 0 -4620 -20 -240 -103 -430 -259 -594
-160 -167 -364 -263 -609 -286 -147 -14 -5777 -14 -5924 0 -484 46 -828 394
-868 880 -13 154 -13 4466 0 4620 21 252 116 457 286 621 170 162 370 247 619
262 28 2 1373 3 2990 2 2680 -1 2946 -2 3010 -17z"/>
<path d="M2400 6080 l0 -320 320 0 320 0 0 320 0 320 -320 0 -320 0 0 -320z"/>
<path d="M3680 6080 l0 -320 1920 0 1920 0 0 320 0 320 -1920 0 -1920 0 0
-320z"/>
<path d="M3040 4160 l0 -320 320 0 320 0 0 320 0 320 -320 0 -320 0 0 -320z"/>
<path d="M4320 4160 l0 -320 1760 0 1760 0 0 320 0 320 -1760 0 -1760 0 0
-320z"/>
</g>
</svg>
